<?xml version="1.0" encoding="UTF-8" standalone="no"?>
<!-- Created with Inkscape (http://www.inkscape.org/) -->

<svg
   width="55.800556mm"
   height="13.74272mm"
   version="1.1"
   viewBox="0 0 55.80056 13.742718"
   id="svg32"
   sodipodi:docname="graphics.svg"
   inkscape:export-filename="C:\wamp64\www\JS Projects\no-stars\src\titleLogo.png"
   inkscape:export-xdpi="95.978104"
   inkscape:export-ydpi="95.978104"
   inkscape:version="1.1.1 (3bf5ae0d25, 2021-09-20)"
   xmlns:inkscape="http://www.inkscape.org/namespaces/inkscape"
   xmlns:sodipodi="http://sodipodi.sourceforge.net/DTD/sodipodi-0.dtd"
   xmlns="http://www.w3.org/2000/svg"
   xmlns:svg="http://www.w3.org/2000/svg">
  <defs
     id="defs36">
    <marker
       style="overflow:visible"
       id="TriangleOutL"
       refX="0"
       refY="0"
       orient="auto"
       inkscape:stockid="TriangleOutL"
       inkscape:isstock="true">
      <path
         transform="scale(0.8)"
         style="fill:context-stroke;fill-rule:evenodd;stroke:context-stroke;stroke-width:1pt"
         d="M 5.77,0 -2.88,5 V -5 Z"
         id="path2369" />
    </marker>
    <marker
       style="overflow:visible"
       id="marker2608"
       refX="0"
       refY="0"
       orient="auto"
       inkscape:stockid="TriangleInL"
       inkscape:isstock="true">
      <path
         transform="scale(-0.8)"
         style="fill:context-stroke;fill-rule:evenodd;stroke:context-stroke;stroke-width:1pt"
         d="M 5.77,0 -2.88,5 V -5 Z"
         id="path2606" />
    </marker>
    <marker
       style="overflow:visible"
       id="Arrow2Lend"
       refX="0"
       refY="0"
       orient="auto"
       inkscape:stockid="Arrow2Lend"
       inkscape:isstock="true">
      <path
         transform="matrix(-1.1,0,0,-1.1,-1.1,0)"
         d="M 8.7185878,4.0337352 -2.2072895,0.01601326 8.7185884,-4.0017078 c -1.7454984,2.3720609 -1.7354408,5.6174519 -6e-7,8.035443 z"
         style="fill:context-stroke;fill-rule:evenodd;stroke:context-stroke;stroke-width:0.625;stroke-linejoin:round"
         id="path2246" />
    </marker>
    <marker
       style="overflow:visible"
       id="TriangleInL"
       refX="0"
       refY="0"
       orient="auto"
       inkscape:stockid="TriangleInL"
       inkscape:isstock="true">
      <path
         transform="scale(-0.8)"
         style="fill:context-stroke;fill-rule:evenodd;stroke:context-stroke;stroke-width:1pt"
         d="M 5.77,0 -2.88,5 V -5 Z"
         id="path2360" />
    </marker>
    <marker
       style="overflow:visible"
       id="Arrow2Lstart"
       refX="0"
       refY="0"
       orient="auto"
       inkscape:stockid="Arrow2Lstart"
       inkscape:isstock="true">
      <path
         transform="matrix(1.1,0,0,1.1,1.1,0)"
         d="M 8.7185878,4.0337352 -2.2072895,0.01601326 8.7185884,-4.0017078 c -1.7454984,2.3720609 -1.7354408,5.6174519 -6e-7,8.035443 z"
         style="fill:context-stroke;fill-rule:evenodd;stroke:context-stroke;stroke-width:0.625;stroke-linejoin:round"
         id="path2243" />
    </marker>
  </defs>
  <sodipodi:namedview
     id="namedview34"
     pagecolor="#ffffff"
     bordercolor="#666666"
     borderopacity="1.0"
     inkscape:pageshadow="2"
     inkscape:pageopacity="0.0"
     inkscape:pagecheckerboard="0"
     inkscape:document-units="mm"
     showgrid="false"
     inkscape:zoom="0.3593931"
     inkscape:cx="-601.01322"
     inkscape:cy="118.25492"
     inkscape:window-width="1920"
     inkscape:window-height="991"
     inkscape:window-x="-9"
     inkscape:window-y="1341"
     inkscape:window-maximized="1"
     inkscape:current-layer="svg32"
     inkscape:snap-global="false" />
  <g
     aria-label="STUDIOS"
     id="text6"
     style="font-size:3.66251px;line-height:1.25;font-family:'Century Gothic';letter-spacing:2.25339px;stroke-width:0.0190759"
     transform="matrix(1.1380165,0,0,1.1380165,-2.7e-5,-2.9500156e-5)">
    <path
       d="m 10.727399,11.519882 0.223542,-0.134125 q 0.23606,0.434565 0.545442,0.434565 0.132337,0 0.248579,-0.0608 0.116242,-0.06259 0.177045,-0.166315 0.0608,-0.103724 0.0608,-0.219965 0,-0.132337 -0.08942,-0.259309 -0.123395,-0.175257 -0.450661,-0.422047 -0.329053,-0.248579 -0.409528,-0.359455 -0.13949,-0.185987 -0.13949,-0.4023757 0,-0.1716802 0.08226,-0.3129586 0.08226,-0.1412785 0.230695,-0.2217536 0.15022,-0.082263 0.325477,-0.082263 0.185987,0 0.346937,0.092993 0.162739,0.091205 0.34336,0.3379953 l -0.2146,0.1627385 Q 11.859415,9.7100871 11.753904,9.6474954 11.65018,9.5849036 11.526785,9.5849036 q -0.159162,0 -0.261097,0.09657 -0.100147,0.09657 -0.100147,0.2378486 0,0.08584 0.03577,0.1663148 0.03577,0.08047 0.130549,0.175257 0.05186,0.05007 0.339783,0.262885 0.341572,0.252156 0.468544,0.448873 0.126972,0.196716 0.126972,0.395222 0,0.286133 -0.218177,0.497157 -0.216389,0.211023 -0.527559,0.211023 -0.239637,0 -0.434565,-0.126972 -0.194929,-0.12876 -0.359456,-0.4292 z"
       id="path2317" />
    <path
       d="M 14.815621,9.634977 V 9.3792451 h 1.443186 V 9.634977 h -0.586573 v 2.374909 H 15.403983 V 9.634977 Z"
       id="path2319" />
    <path
       d="m 18.898478,9.3792451 h 0.262885 v 1.5880419 q 0,0.282556 0.01073,0.352302 0.01967,0.155585 0.0912,0.261096 0.07153,0.103724 0.219965,0.175257 0.148432,0.06975 0.298652,0.06975 0.130549,0 0.250367,-0.05544 0.119819,-0.05544 0.200294,-0.153797 0.08047,-0.09836 0.11803,-0.237848 0.02683,-0.100147 0.02683,-0.411317 V 9.3792451 h 0.262885 v 1.5880419 q 0,0.352302 -0.06974,0.570478 -0.06796,0.216389 -0.275404,0.377339 -0.205658,0.16095 -0.498945,0.16095 -0.318324,0 -0.545442,-0.152008 -0.227119,-0.152009 -0.304017,-0.402376 -0.04828,-0.153796 -0.04828,-0.554383 z"
       id="path2321" />
    <path
       d="M 23.541083,12.009886 V 9.3792451 h 0.545442 q 0.590151,0 0.856613,0.094782 0.382703,0.1341251 0.597304,0.464967 0.216388,0.3308419 0.216388,0.7886559 0,0.395222 -0.17168,0.695662 -0.169892,0.30044 -0.443507,0.443507 -0.271827,0.143067 -0.763619,0.143067 z m 0.252155,-0.248579 h 0.304017 q 0.545442,0 0.756466,-0.06796 0.296863,-0.09657 0.466755,-0.346937 0.169892,-0.252156 0.169892,-0.615188 0,-0.380915 -0.184198,-0.650954 -0.184199,-0.2700382 -0.513252,-0.3701849 -0.246791,-0.07511 -0.813693,-0.07511 h -0.185987 z"
       id="path2323" />
    <path
       d="m 28.482341,9.3792451 h 0.262885 v 2.6306409 h -0.262885 z"
       id="path2325" />
    <path
       d="m 32.854907,9.3130767 q 0.597304,0 0.99968,0.3987987 0.402375,0.3987986 0.402375,0.9817956 0,0.577632 -0.402375,0.980008 -0.400587,0.402375 -0.978219,0.402375 -0.584786,0 -0.987161,-0.400587 -0.402376,-0.400587 -0.402376,-0.969277 0,-0.379127 0.18241,-0.702816 0.184199,-0.3236886 0.500734,-0.5060988 0.316535,-0.1841985 0.684932,-0.1841985 z m 0.01252,0.2575203 q -0.291499,0 -0.552596,0.1520084 -0.261097,0.1520085 -0.40774,0.4095286 -0.146643,0.25752 -0.146643,0.574056 0,0.468543 0.323688,0.792232 0.325477,0.3219 0.783291,0.3219 0.305805,0 0.565114,-0.148432 0.261097,-0.148431 0.405952,-0.405952 0.146643,-0.25752 0.146643,-0.572267 0,-0.312958 -0.146643,-0.565114 Q 33.693637,9.8746139 33.428963,9.7226054 33.164289,9.570597 32.867427,9.570597 Z"
       id="path2327" />
    <path
       d="m 36.766084,11.519882 0.223542,-0.134125 q 0.23606,0.434565 0.545442,0.434565 0.132337,0 0.248579,-0.0608 0.116242,-0.06259 0.177045,-0.166315 0.0608,-0.103724 0.0608,-0.219965 0,-0.132337 -0.08942,-0.259309 -0.123396,-0.175257 -0.450661,-0.422047 -0.329053,-0.248579 -0.409528,-0.359455 -0.139491,-0.185987 -0.139491,-0.4023757 0,-0.1716802 0.08226,-0.3129586 0.08226,-0.1412785 0.230695,-0.2217536 0.15022,-0.082263 0.325477,-0.082263 0.185987,0 0.346937,0.092993 0.162738,0.091205 0.34336,0.3379953 l -0.2146,0.1627385 Q 37.8981,9.7100871 37.792588,9.6474954 37.688865,9.5849036 37.56547,9.5849036 q -0.159162,0 -0.261097,0.09657 -0.100147,0.09657 -0.100147,0.2378486 0,0.08584 0.03577,0.1663148 0.03577,0.08047 0.130548,0.175257 0.05186,0.05007 0.339784,0.262885 0.341572,0.252156 0.468544,0.448873 0.126972,0.196716 0.126972,0.395222 0,0.286133 -0.218177,0.497157 -0.216389,0.211023 -0.527559,0.211023 -0.239637,0 -0.434565,-0.126972 -0.194929,-0.12876 -0.359456,-0.4292 z"
       id="path2329" />
  </g>
  <g
     aria-label="O STARS"
     id="text10"
     style="font-weight:bold;font-size:10.2998px;line-height:1.25;font-family:'Century Gothic';letter-spacing:0px;stroke-width:0.0536441"
     transform="matrix(1.1380165,0,0,1.1380165,-2.7e-5,-2.9500156e-5)">
    <path
       d="m 13.713129,2.5922433e-5 q 1.569111,0 2.695651,1.136598977567 1.13157,1.1365991 1.13157,2.7710888 0,1.6194021 -1.116482,2.7409135 -1.111453,1.1215115 -2.70068,1.1215115 -1.664665,0 -2.76606,-1.1516867 -1.1013944,-1.1516866 -1.1013944,-2.7358843 0,-1.061161 0.5129784,-1.9513293 Q 10.88169,1.0410702 11.776888,0.52306264 12.677114,2.5922433e-5 13.713129,2.5922433e-5 Z M 13.698042,1.3780265 q -1.025957,0 -1.725015,0.7141463 -0.699059,0.7141463 -0.699059,1.8155409 0,1.2271246 0.88011,1.9412709 0.683971,0.5582411 1.56911,0.5582411 1.00081,0 1.704898,-0.7242047 0.704088,-0.7242047 0.704088,-1.7853657 0,-1.0561318 -0.709117,-1.7853657 Q 14.71394,1.3780265 13.698042,1.3780265 Z"
       id="path2041" />
    <path
       d="m 25.627302,1.1919461 -1.041044,0.9203435 q -0.548183,-0.7644383 -1.116482,-0.7644383 -0.276606,0 -0.452628,0.150876 -0.176022,0.1458468 -0.176022,0.3319271 0,0.1860804 0.12573,0.352044 0.170993,0.2212847 1.030986,0.9505186 0.804672,0.6739127 0.975664,0.8499347 0.427482,0.4325111 0.603504,0.8298178 0.181052,0.3922776 0.181052,0.8599931 0,0.910285 -0.62865,1.5037306 -0.62865,0.5934455 -1.639519,0.5934455 -0.789585,0 -1.378001,-0.3872484 -0.583387,-0.3872483 -1.00081,-1.2170662 l 1.181861,-0.7141463 q 0.533095,0.9806939 1.227125,0.9806939 0.362102,0 0.608533,-0.2112264 0.246431,-0.2112264 0.246431,-0.4878323 0,-0.25146 -0.186081,-0.5029199 -0.18608,-0.25146 -0.819759,-0.7694675 Q 22.162184,3.4752026 21.81014,2.9421074 21.458096,2.4039831 21.458096,1.870888 q 0,-0.7694675 0.583387,-1.31765017 Q 22.6299,2.5922433e-5 23.489893,2.5922433e-5 q 0.553212,0 1.051102,0.256489157567 0.50292,0.25648916 1.086307,0.93543102 z"
       id="path2038" />
    <path
       d="m 26.376652,0.18610629 h 4.088739 V 1.5741653 h -1.347825 v 6.009893 h -1.428293 v -6.009893 h -1.312621 z"
       id="path2035" />
    <path
       d="m 33.684079,0.18610629 h 1.428292 L 37.958898,7.5840583 H 36.495401 L 35.917043,6.0602109 H 32.899524 L 32.29602,7.5840583 H 30.832523 Z M 34.408283,2.147494 33.42256,4.6872396 h 1.966417 z"
       id="path2032" />
    <path
       d="m 39.14579,0.18610629 h 1.493672 q 1.227125,0 1.745132,0.22128477 0.523037,0.21625556 0.839877,0.72420464 0.316839,0.5079492 0.316839,1.2019786 0,0.7292339 -0.352044,1.2220954 -0.347014,0.4878324 -1.051102,0.7392923 l 1.750161,3.2890963 H 42.34939 L 40.684725,4.4508672 H 40.553966 V 7.5840583 H 39.14579 Z m 1.408176,2.89178951 h 0.442569 q 0.673913,0 0.925373,-0.176022 0.256489,-0.1760219 0.256489,-0.5833871 0,-0.2414015 -0.12573,-0.4174235 -0.12573,-0.1810512 -0.336956,-0.2564891 -0.211226,-0.080467 -0.774497,-0.080467 h -0.387248 z"
       id="path2029" />
    <path
       d="m 48.902436,1.1919461 -1.041045,0.9203435 q -0.548182,-0.7644383 -1.116482,-0.7644383 -0.276606,0 -0.452628,0.150876 -0.176022,0.1458468 -0.176022,0.3319271 0,0.1860804 0.12573,0.352044 0.170993,0.2212847 1.030986,0.9505186 0.804672,0.6739127 0.975665,0.8499347 0.427482,0.4325111 0.603504,0.8298178 0.181051,0.3922776 0.181051,0.8599931 0,0.910285 -0.62865,1.5037306 -0.62865,0.5934455 -1.639519,0.5934455 -0.789584,0 -1.378001,-0.3872484 -0.583387,-0.3872483 -1.00081,-1.2170662 l 1.181861,-0.7141463 q 0.533096,0.9806939 1.227125,0.9806939 0.362102,0 0.608533,-0.2112264 0.246431,-0.2112264 0.246431,-0.4878323 0,-0.25146 -0.18608,-0.5029199 -0.186081,-0.25146 -0.81976,-0.7694675 -1.207008,-0.985723 -1.559052,-1.5188182 -0.352044,-0.5381243 -0.352044,-1.0712194 0,-0.7694675 0.583387,-1.31765017 0.588417,-0.553211907567 1.44841,-0.553211907567 0.553212,0 1.051102,0.256489157567 0.50292,0.25648916 1.086308,0.93543102 z"
       id="path2026" />
  </g>
  <path
     d="M 10.069405,8.6409685 6.2186548,7.3771595 3.845995,10.662835 3.793295,6.6101945 0,5.3689525 l 3.793295,-1.240943 0.0531,-4.052642 2.3724298,3.285907 c 0.4893,0.667218 0.97398,1.337782 1.4589,2.008185 z"
     stroke-linecap="round"
     stroke-width="1.81025"
     id="path12" />
  <path
     d="m 10.037105,8.5740545 -0.001,-8.47469 H 8.6540148 v 7.464529 z"
     stroke="#000000"
     stroke-width="0.0610479px"
     id="path14" />
  <path
     d="m 4.930915,3.4009605 2.3073598,3.092782 -1.39272,-0.294973 c 0,0 -0.8340398,1.261225 -0.8340398,1.200195 0,-0.06103 -0.1424,-1.535823 -0.1424,-1.535823 l -1.45446,-0.447535 1.45446,-0.569594 z"
     fill="#7197bd"
     id="path16"
     style="stroke-width:0.230736" />
  <g
     id="g26"
     transform="translate(-411.90173,444.45827)">
    <g
       id="g1975"
       transform="matrix(1.0489333,0,0,1.0489333,-20.890094,19.152477)">
      <g
         id="g1963"
         transform="translate(67.065249,93.797259)">
        <g
           id="g1958">
          <circle
             cx="359.84473"
             cy="-485.19724"
             r="31.915001"
             fill="#ffffff"
             id="circle2" />
          <path
             d="m 377.84475,-467.20726 -18.515,-6.0766 -11.408,15.798 0.0578,-19.486 -18.55,-5.9681 18.551,-5.9667 -0.0562,-19.486 11.407,15.799 c 2.3527,3.2081 4.6832,6.4323 7.0147,9.6557 z"
             stroke-linecap="round"
             stroke-width="8.7041"
             id="path18" />
        </g>
      </g>
      <path
         d="m 444.76,-373.73 -0.006,-40.749 h -6.6454 v 35.891 z"
         stroke="#000000"
         stroke-width="0.29354px"
         id="path20" />
      <path
         d="m 420.2,-398.59 11.094,14.871 -6.6965,-1.4182 c 0,0 -4.0102,6.0642 -4.0102,5.7708 0,-0.2934 -0.68466,-7.3846 -0.68466,-7.3846 l -6.9934,-2.1518 6.9934,-2.7387 z"
         fill="#7197bd"
         id="path22" />
    </g>
    <circle
       cx="328.32001"
       cy="-377.88"
       r="1.4056"
       fill="#ffffff"
       stroke="#ffffff"
       stroke-linecap="round"
       stroke-width="1.8"
       id="circle24" />
  </g>
  <path
     style="fill:none;stroke:#000000;stroke-width:0.378725;stroke-linecap:round;stroke-linejoin:miter;stroke-miterlimit:2.9;stroke-dasharray:none;stroke-opacity:1;marker-end:url(#TriangleOutL)"
     d="m -2.033232,-15.740432 h 2.257606 -2.25254"
     id="path880"
     sodipodi:nodetypes="ccc" />
  <path
     style="fill:none;stroke:#000000;stroke-width:0.687295;stroke-linecap:butt;stroke-linejoin:miter;stroke-miterlimit:4;stroke-dasharray:none;stroke-opacity:1"
     d="M -1.546074,-15.740432 H 3.756945"
     id="path2657" />
</svg>
