<?xml version="1.0" encoding="UTF-8"?>
<!-- Created with Inkscape (http://www.inkscape.org/) -->
<svg width="63.829mm" height="63.829mm" version="1.1" viewBox="0 0 63.829 63.829" xmlns="http://www.w3.org/2000/svg">
 <g transform="translate(782.58 450.83)">
  <circle cx="-528.13" cy="-449.31" r="29.466"/>
  <circle cx="640.19" cy="-312.07" r="31.915" fill="#fff"/>
  <text x="333.0275" y="-179.10452" font-family="'Century Gothic'" font-size="18.064px" letter-spacing="4.7625px" stroke-width=".094084" style="line-height:1.25" xml:space="preserve"><tspan x="333.0275" y="-179.10452" font-family="'Century Gothic'" font-size="18.064px" stroke-width=".094084">STUDIOS</tspan></text>
  <text x="300.02634" y="-293.79395" font-family="'Century Gothic'" font-size="50.8px" font-weight="bold" letter-spacing="0px" stroke-width=".26458" style="line-height:1.25" xml:space="preserve"><tspan x="300.02634" y="-293.79395" font-family="'Century Gothic'" font-size="50.8px" font-weight="bold" stroke-width=".26458">O STARS</tspan></text>
  <g transform="translate(-31.748 -597.46)" stroke-width=".26458" aria-label="N">
   <path d="m320.69 290.14v-24.011h6.9453v36.488h-6.6725c-0.24345-3.2708-0.27285-12.477-0.27285-12.477z"/>
  </g>
  <g>
   <path d="m272.54-289.64 8.1346-10.157 7.7903 1.8464 2.1752-1.864-1.3534-1.9626-3.9445-5.0192c-0.20491-0.20739-5.3085-6.8086-5.3085-6.8086l-8.0188-10.16 0.0315 12.532-11.769 5.0096 11.929 3.8427z" fill="#7197bd" stroke="#000" stroke-linecap="round" stroke-width="5.704"/>
   <text x="640.13104" y="-175.35828" fill="#fefffd" font-family="'Century Gothic'" font-size="23.024px" letter-spacing="5.2917px" stroke-width=".11992" style="line-height:1.25" xml:space="preserve"><tspan x="640.13104" y="-175.35828" fill="#fefffd" font-family="'Century Gothic'" font-size="23.024px" stroke-width=".11992">STUDIOS</tspan></text>
   <text x="626.64417" y="-204.20674" fill="#fffffd" font-family="'Century Gothic'" font-size="50.8px" font-weight="bold" letter-spacing="0px" stroke-width=".26458" style="line-height:1.25" xml:space="preserve"><tspan x="626.64417" y="-204.20674" fill="#fffffd" font-family="'Century Gothic'" font-size="50.8px" font-weight="bold" stroke-width=".26458">O STARS</tspan></text>
   <g transform="translate(294.87 -507.88)" fill="#fff" stroke-width=".26458" aria-label="N">
    <path d="m320.69 290.14v-24.011h6.9453v36.488h-6.6725c-0.24345-3.2708-0.27285-12.477-0.27285-12.477z" fill="#fff"/>
   </g>
   <path d="m599.95-200.05 7.3408-10.157 7.7903 1.8465 2.1752-1.864-1.3534-1.9626-3.9445-5.0192c-0.20491-0.20739-5.3085-6.8086-5.3085-6.8086l-8.0188-10.16 0.0315 12.532-11.769 5.0096 11.929 3.8427z" fill="#2d4e84" stroke="#fff" stroke-linecap="round" stroke-width="5.704"/>
  </g>
  <g transform="translate(221.13 -327.08)">
   <path d="m430.07 29.631-8.9802-1.5903-12.395 15.154v-19.083l-17.025-5.332 17.025-7.0158v-19.083l19.691 25.163v-24.592h6.9794v36.479z"/>
   <path d="m414.31 9.0985 11.272 13.891-6.7352-1.3564s-3.8353 5.7997-3.8353 5.5191-0.65481-7.0626-0.65481-7.0626l-6.6884-2.058 6.6884-2.6192z" fill="#7197bd"/>
  </g>
  <circle cx="-750.67" cy="-418.91" r="31.915" fill="#fff"/>
  <g transform="translate(-133.21 -231.34)">
   <g transform="translate(1.918)">
    <text transform="translate(100.28 -166.79)" x="339.46384" y="197.19145" font-family="'Century Gothic'" font-size="50.8px" font-weight="bold" letter-spacing="0px" stroke-width=".26458" style="line-height:1.25" xml:space="preserve"><tspan x="339.46384" y="197.19145" font-family="'Century Gothic'" font-size="50.8px" font-weight="bold" stroke-width=".26458">O STARS</tspan></text>
    <path d="m430.07 29.631-8.9802-1.5903-12.395 15.154v-19.083l-17.025-5.332 17.025-7.0158v-19.083l19.691 25.163v-24.592h6.9794v36.479z"/>
    <path d="m414.31 9.0985 11.272 13.891-6.7352-1.3564s-3.8353 5.7997-3.8353 5.5191-0.65481-7.0626-0.65481-7.0626l-6.6884-2.058 6.6884-2.6192z" fill="#7197bd"/>
   </g>
  </g>
  <text x="-510.59808" y="-264.07562" font-family="'Century Gothic'" font-size="18.064px" letter-spacing="4.7625px" stroke-width=".094084" style="line-height:1.25" xml:space="preserve"><tspan x="-510.59808" y="-264.07562" font-family="'Century Gothic'" font-size="18.064px" stroke-width=".094084">STUDIOS</tspan></text>
  <text x="-535.17133" y="-285.90433" font-family="'Century Gothic'" font-size="50.8px" font-weight="bold" letter-spacing="0px" stroke-width=".26458" style="line-height:1.25" xml:space="preserve"><tspan x="-535.17133" y="-285.90433" font-family="'Century Gothic'" font-size="50.8px" font-weight="bold" stroke-width=".26458">O STARS</tspan></text>
  <path d="m-539.21-285.88-16.689-5.4773-10.283 14.24 0.0521-17.564-16.72-5.3795 16.721-5.3782-0.0507-17.564 10.282 14.241c2.1206 2.8917 4.2212 5.7979 6.3228 8.7034z" stroke-linecap="round" stroke-width="7.8456"/>
  <path d="m-539.35-286.17-5e-3 -36.823h-5.9899v32.445z" stroke="#000" stroke-width=".26458px"/>
  <path d="m-561.74-307.22 8.613 11.544-5.1987-1.101s-3.1132 4.7078-3.1132 4.48c0-0.2278-0.53152-5.7329-0.53152-5.7329l-5.4292-1.6705 5.4292-2.1261z" fill="#7197bd"/>
  <path d="m-733.95-401.02-18.316-6.0113-11.286 15.628 0.0572-19.277-18.351-5.904 18.351-5.9026-0.0557-19.277 11.285 15.629c2.3274 3.1736 4.6328 6.3632 6.9394 9.552z" stroke-linecap="round" stroke-width="8.6106"/>
  <g>
   <path d="m-734.1-401.33-5e-3 -40.414h-6.574v35.609z" stroke="#000" stroke-width=".29038px"/>
   <path d="m-758.67-424.44 9.4528 12.67-5.7056-1.2084s-3.4168 5.1669-3.4168 4.9169c0-0.25001-0.58335-6.2919-0.58335-6.2919l-5.9586-1.8334 5.9586-2.3334z" fill="#7197bd"/>
   <path d="m-511.82-433.42-16.689-5.4773-10.283 14.24 0.0521-17.564-16.72-5.3795 16.721-5.3782-0.0507-17.564 10.282 14.241c2.1206 2.8917 4.2212 5.7979 6.3228 8.7034z" fill="#fff" stroke-linecap="round" stroke-width="7.8456"/>
   <path d="m-511.96-433.71-5e-3 -36.823h-5.9899v32.445z" fill="#fff" stroke="#fff" stroke-width=".26458px"/>
   <path d="m-534.34-454.76 8.613 11.544-5.1987-1.101s-3.1132 4.7078-3.1132 4.48c0-0.2278-0.53152-5.7329-0.53152-5.7329l-5.4292-1.6705 5.4292-2.1261z" fill="#7197bd"/>
  </g>
 </g>
</svg>
