<?xml version="1.0" encoding="UTF-8"?>
<!-- Created with Inkscape (http://www.inkscape.org/) -->
<svg width="4.6112mm" height="7.3422mm" version="1.1" viewBox="0 0 4.6112 7.3422" xmlns="http://www.w3.org/2000/svg">
 <g transform="translate(-339.42 379.86)">
  <circle cx="426.91" cy="-391.4" r="31.915" fill="#fff"/>
  <text x="285.88116" y="-274.14557" font-family="'Century Gothic'" font-size="18.064px" letter-spacing="4.7625px" stroke-width=".094084" style="line-height:1.25" xml:space="preserve"><tspan x="285.88116" y="-274.14557" font-family="'Century Gothic'" font-size="18.064px" stroke-width=".094084">STUDIOS</tspan></text>
  <text x="261.30792" y="-295.97427" font-family="'Century Gothic'" font-size="50.8px" font-weight="bold" letter-spacing="0px" stroke-width=".26458" style="line-height:1.25" xml:space="preserve"><tspan x="261.30792" y="-295.97427" font-family="'Century Gothic'" font-size="50.8px" font-weight="bold" stroke-width=".26458">O STARS</tspan></text>
  <path d="m258.72-295.93-16.689-5.4773-10.283 14.24-0.22853-17.564-16.44-5.3795 16.44-5.3782 0.22993-17.564 10.282 14.241c2.1206 2.8917 4.2212 5.7979 6.3228 8.7034z" stroke-linecap="round" stroke-width="7.8456"/>
  <path d="m258.58-296.22-5e-3 -36.729h-5.9899v32.351z" stroke="#000" stroke-width=".26458px"/>
  <path d="m236.45-318.64 10 13.404-6.036-1.2784s-3.6147 5.4661-3.6147 5.2016-0.61713-6.6562-0.61713-6.6562l-6.3036-1.9396 6.3036-2.4686z" fill="#7197bd"/>
  <path d="m444.91-373.41-18.515-6.0766-11.408 15.798 0.0578-19.486-18.55-5.9681 18.551-5.9667-0.0562-19.486 11.407 15.799c2.3527 3.2081 4.6832 6.4323 7.0147 9.6557z" stroke-linecap="round" stroke-width="8.7041"/>
  <path d="m444.76-373.73-6e-3 -40.749h-6.6454v35.891z" stroke="#000" stroke-width=".29354px"/>
  <path d="m420.2-398.59 11.094 14.871-6.6965-1.4182s-4.0102 6.0642-4.0102 5.7708-0.68466-7.3846-0.68466-7.3846l-6.9934-2.1518 6.9934-2.7387z" fill="#7197bd"/>
  <path d="m571.31-359.45-30.632-10.054-18.875 26.137-0.0149-32.24-30.58-9.8741 30.581-9.8718 0.0175-32.24 18.873 26.139c3.8925 5.3077 7.7482 10.642 11.606 15.975z" stroke-linecap="round" stroke-width="14.401"/>
  <g>
   <path d="m571.05-359.98-0.01-67.418h-10.995v59.382z" stroke="#000" stroke-width=".48565px"/>
   <path d="m530.43-401.12 18.355 24.603-11.079-2.3465s-6.6348 10.033-6.6348 9.5476c0-0.48546-1.1328-12.218-1.1328-12.218l-11.57-3.5601 11.57-4.5311z" fill="#7197bd"/>
   <circle cx="328.32" cy="-377.88" r="1.4056" fill="#fff" stroke="#fff" stroke-linecap="round" stroke-width="1.8"/>
  </g>
  <g stroke-linecap="round">
   <path d="m328.32-377.92v4.6441" fill="none" stroke="#fff" stroke-width=".86"/>
   <circle cx="341.72" cy="-377.56" r="1.4056" stroke="#000" stroke-width="1.8"/>
   <path d="m341.72-377.59v4.6441" stroke="#000" stroke-width=".86"/>
  </g>
 </g>
</svg>
