<?xml version="1.0" encoding="UTF-8"?>
<!-- Created with Inkscape (http://www.inkscape.org/) -->
<svg width="4.6112mm" height="7.3422mm" version="1.1" viewBox="0 0 4.6112 7.3422" xmlns="http://www.w3.org/2000/svg">
 <g transform="translate(-326.01 380.18)">
  <circle cx="640.19" cy="-312.07" r="31.915" fill="#fff"/>
  <text x="333.0275" y="-179.10452" font-family="'Century Gothic'" font-size="18.064px" letter-spacing="4.7625px" stroke-width=".094084" style="line-height:1.25" xml:space="preserve"><tspan x="333.0275" y="-179.10452" font-family="'Century Gothic'" font-size="18.064px" stroke-width=".094084">STUDIOS</tspan></text>
  <text x="308.45425" y="-200.93324" font-family="'Century Gothic'" font-size="50.8px" font-weight="bold" letter-spacing="0px" stroke-width=".26458" style="line-height:1.25" xml:space="preserve"><tspan x="308.45425" y="-200.93324" font-family="'Century Gothic'" font-size="50.8px" font-weight="bold" stroke-width=".26458">O STARS</tspan></text>
  <path d="m305.87-200.89-16.689-5.4773-10.283 14.24 0.0521-17.564-16.72-5.3795 16.721-5.3782-0.0507-17.564 10.282 14.241c2.1206 2.8917 4.2212 5.7979 6.3228 8.7034z" stroke-linecap="round" stroke-width="7.8456"/>
  <path d="m305.73-201.18-5e-3 -36.729h-5.9899v32.351z" stroke="#000" stroke-width=".26458px"/>
  <path d="m283.6-223.59 10 13.404-6.036-1.2784s-3.6147 5.4661-3.6147 5.2016-0.61713-6.6562-0.61713-6.6562l-6.3036-1.9396 6.3036-2.4686z" fill="#7197bd"/>
  <path d="m658.19-294.08-18.515-6.0766-11.408 15.798 0.0578-19.486-18.55-5.9681 18.551-5.9667-0.0562-19.486 11.407 15.799c2.3527 3.2081 4.6832 6.4323 7.0147 9.6557z" stroke-linecap="round" stroke-width="8.7041"/>
  <g>
   <path d="m658.04-294.4-6e-3 -40.749h-6.6454v35.891z" stroke="#000" stroke-width=".29354px"/>
   <path d="m633.49-319.27 11.094 14.871-6.6965-1.4182s-4.0102 6.0642-4.0102 5.7708-0.68466-7.3846-0.68466-7.3846l-6.9934-2.1518 6.9934-2.7387z" fill="#7197bd"/>
   <circle cx="328.32" cy="-377.88" r="1.4056" fill="#fff" stroke="#fff" stroke-linecap="round" stroke-width="1.8"/>
  </g>
  <path d="m328.32-377.92v4.6441" fill="none" stroke="#fff" stroke-linecap="round" stroke-width=".86"/>
 </g>
</svg>
