<?xml version="1.0" encoding="UTF-8"?>
<!-- Created with Inkscape (http://www.inkscape.org/) -->
<svg width="55.801mm" height="13.743mm" version="1.1" viewBox="0 0 55.801 13.743" xmlns="http://www.w3.org/2000/svg">
 <g transform="matrix(1.138 0 0 1.138 -5e-7 -2.95e-5)" stroke-width=".019076" aria-label="STUDIOS">
  <path d="m10.727 11.52 0.22354-0.13412q0.23606 0.43456 0.54544 0.43456 0.13234 0 0.24858-0.0608 0.11624-0.06259 0.17704-0.16632 0.0608-0.10372 0.0608-0.21996 0-0.13234-0.08942-0.25931-0.1234-0.17526-0.45066-0.42205-0.32905-0.24858-0.40953-0.35946-0.13949-0.18599-0.13949-0.40238 0-0.17168 0.08226-0.31296 0.08226-0.14128 0.2307-0.22175 0.15022-0.082263 0.32548-0.082263 0.18599 0 0.34694 0.092993 0.16274 0.091205 0.34336 0.338l-0.2146 0.16274q-0.14842-0.19672-0.25393-0.25931-0.10372-0.062592-0.22712-0.062592-0.15916 0-0.2611 0.09657-0.10015 0.09657-0.10015 0.23785 0 0.08584 0.03577 0.16631 0.03577 0.08047 0.13055 0.17526 0.05186 0.05007 0.33978 0.26288 0.34157 0.25216 0.46854 0.44887 0.12697 0.19672 0.12697 0.39522 0 0.28613-0.21818 0.49716-0.21639 0.21102-0.52756 0.21102-0.23964 0-0.43456-0.12697-0.19493-0.12876-0.35946-0.4292z"/>
  <path d="m14.816 9.635v-0.25573h1.4432v0.25573h-0.58657v2.3749h-0.26825v-2.3749z"/>
  <path d="m18.898 9.3792h0.26288v1.588q0 0.28256 0.01073 0.3523 0.01967 0.15558 0.0912 0.2611 0.07153 0.10372 0.21996 0.17526 0.14843 0.06975 0.29865 0.06975 0.13055 0 0.25037-0.05544 0.11982-0.05544 0.20029-0.1538 0.08047-0.09836 0.11803-0.23785 0.02683-0.10015 0.02683-0.41132v-1.588h0.26288v1.588q0 0.3523-0.06974 0.57048-0.06796 0.21639-0.2754 0.37734-0.20566 0.16095-0.49894 0.16095-0.31832 0-0.54544-0.15201-0.22712-0.15201-0.30402-0.40238-0.04828-0.1538-0.04828-0.55438z"/>
  <path d="m23.541 12.01v-2.6306h0.54544q0.59015 0 0.85661 0.094782 0.3827 0.13413 0.5973 0.46497 0.21639 0.33084 0.21639 0.78866 0 0.39522-0.17168 0.69566-0.16989 0.30044-0.44351 0.44351-0.27183 0.14307-0.76362 0.14307zm0.25216-0.24858h0.30402q0.54544 0 0.75647-0.06796 0.29686-0.09657 0.46676-0.34694 0.16989-0.25216 0.16989-0.61519 0-0.38092-0.1842-0.65095-0.1842-0.27004-0.51325-0.37018-0.24679-0.07511-0.81369-0.07511h-0.18599z"/>
  <path d="m28.482 9.3792h0.26288v2.6306h-0.26288z"/>
  <path d="m32.855 9.3131q0.5973 0 0.99968 0.3988 0.40238 0.3988 0.40238 0.9818 0 0.57763-0.40238 0.98001-0.40059 0.40238-0.97822 0.40238-0.58479 0-0.98716-0.40059-0.40238-0.40059-0.40238-0.96928 0-0.37913 0.18241-0.70282 0.1842-0.32369 0.50073-0.5061 0.31654-0.1842 0.68493-0.1842zm0.01252 0.25752q-0.2915 0-0.5526 0.15201-0.2611 0.15201-0.40774 0.40953-0.14664 0.25752-0.14664 0.57406 0 0.46854 0.32369 0.79223 0.32548 0.3219 0.78329 0.3219 0.3058 0 0.56511-0.14843 0.2611-0.14843 0.40595-0.40595 0.14664-0.25752 0.14664-0.57227 0-0.31296-0.14664-0.56511-0.14486-0.25394-0.40953-0.40595-0.26467-0.15201-0.56154-0.15201z"/>
  <path d="m36.766 11.52 0.22354-0.13412q0.23606 0.43456 0.54544 0.43456 0.13234 0 0.24858-0.0608 0.11624-0.06259 0.17704-0.16632 0.0608-0.10372 0.0608-0.21996 0-0.13234-0.08942-0.25931-0.1234-0.17526-0.45066-0.42205-0.32905-0.24858-0.40953-0.35946-0.13949-0.18599-0.13949-0.40238 0-0.17168 0.08226-0.31296 0.08226-0.14128 0.2307-0.22175 0.15022-0.082263 0.32548-0.082263 0.18599 0 0.34694 0.092993 0.16274 0.091205 0.34336 0.338l-0.2146 0.16274q-0.14842-0.19672-0.25393-0.25931-0.10372-0.062592-0.22712-0.062592-0.15916 0-0.2611 0.09657-0.10015 0.09657-0.10015 0.23785 0 0.08584 0.03577 0.16631 0.03577 0.08047 0.13055 0.17526 0.05186 0.05007 0.33978 0.26288 0.34157 0.25216 0.46854 0.44887 0.12697 0.19672 0.12697 0.39522 0 0.28613-0.21818 0.49716-0.21639 0.21102-0.52756 0.21102-0.23964 0-0.43456-0.12697-0.19493-0.12876-0.35946-0.4292z"/>
 </g>
 <g transform="matrix(1.138 0 0 1.138 -5e-7 -2.95e-5)" stroke-width=".053644" aria-label="O STARS">
  <path d="m13.713 2.5922e-5q1.5691 0 2.6957 1.1366 1.1316 1.1366 1.1316 2.7711 0 1.6194-1.1165 2.7409-1.1115 1.1215-2.7007 1.1215-1.6647 0-2.7661-1.1517-1.1014-1.1517-1.1014-2.7359 0-1.0612 0.51298-1.9513 0.51298-0.89017 1.4082-1.4082 0.90023-0.52304 1.9362-0.52304zm-0.015087 1.378q-1.026 0-1.725 0.71415-0.69906 0.71415-0.69906 1.8155 0 1.2271 0.88011 1.9413 0.68397 0.55824 1.5691 0.55824 1.0008 0 1.7049-0.7242t0.70409-1.7854q0-1.0561-0.70912-1.7854-0.70912-0.73426-1.725-0.73426z"/>
  <path d="m25.627 1.1919-1.041 0.92034q-0.54818-0.76444-1.1165-0.76444-0.27661 0-0.45263 0.15088-0.17602 0.14585-0.17602 0.33193 0 0.18608 0.12573 0.35204 0.17099 0.22128 1.031 0.95052 0.80467 0.67391 0.97566 0.84993 0.42748 0.43251 0.6035 0.82982 0.18105 0.39228 0.18105 0.85999 0 0.91028-0.62865 1.5037-0.62865 0.59345-1.6395 0.59345-0.78958 0-1.378-0.38725-0.58339-0.38725-1.0008-1.2171l1.1819-0.71415q0.5331 0.98069 1.2271 0.98069 0.3621 0 0.60853-0.21123t0.24643-0.48783q0-0.25146-0.18608-0.50292-0.18608-0.25146-0.81976-0.76947-1.207-0.98572-1.5591-1.5188-0.35204-0.53812-0.35204-1.0712 0-0.76947 0.58339-1.3177 0.58842-0.55321 1.4484-0.55321 0.55321 0 1.0511 0.25649 0.50292 0.25649 1.0863 0.93543z"/>
  <path d="m26.377 0.18611h4.0887v1.3881h-1.3478v6.0099h-1.4283v-6.0099h-1.3126z"/>
  <path d="m33.684 0.18611h1.4283l2.8465 7.398h-1.4635l-0.57836-1.5238h-3.0175l-0.6035 1.5238h-1.4635zm0.7242 1.9614-0.98572 2.5397h1.9664z"/>
  <path d="m39.146 0.18611h1.4937q1.2271 0 1.7451 0.22128 0.52304 0.21626 0.83988 0.7242 0.31684 0.50795 0.31684 1.202 0 0.72923-0.35204 1.2221-0.34701 0.48783-1.0511 0.73929l1.7502 3.2891h-1.5389l-1.6647-3.1332h-0.13076v3.1332h-1.4082zm1.4082 2.8918h0.44257q0.67391 0 0.92537-0.17602 0.25649-0.17602 0.25649-0.58339 0-0.2414-0.12573-0.41742-0.12573-0.18105-0.33696-0.25649-0.21123-0.080467-0.7745-0.080467h-0.38725z"/>
  <path d="m48.902 1.1919-1.041 0.92034q-0.54818-0.76444-1.1165-0.76444-0.27661 0-0.45263 0.15088-0.17602 0.14585-0.17602 0.33193 0 0.18608 0.12573 0.35204 0.17099 0.22128 1.031 0.95052 0.80467 0.67391 0.97566 0.84993 0.42748 0.43251 0.6035 0.82982 0.18105 0.39228 0.18105 0.85999 0 0.91028-0.62865 1.5037-0.62865 0.59345-1.6395 0.59345-0.78958 0-1.378-0.38725-0.58339-0.38725-1.0008-1.2171l1.1819-0.71415q0.5331 0.98069 1.2271 0.98069 0.3621 0 0.60853-0.21123t0.24643-0.48783q0-0.25146-0.18608-0.50292-0.18608-0.25146-0.81976-0.76947-1.207-0.98572-1.5591-1.5188-0.35204-0.53812-0.35204-1.0712 0-0.76947 0.58339-1.3177 0.58842-0.55321 1.4484-0.55321 0.55321 0 1.0511 0.25649 0.50292 0.25649 1.0863 0.93543z"/>
 </g>
 <path d="m10.069 8.641-3.8507-1.2638-2.3727 3.2857-0.052726-4.0526-3.7933-1.2412 3.7933-1.2409 0.053056-4.0526 2.3724 3.2859c0.4893 0.66722 0.97398 1.3378 1.4589 2.0082z" stroke-linecap="round" stroke-width="1.8102"/>
 <path d="m10.037 8.5741-0.00112-8.4747h-1.3821v7.4645z" stroke="#000" stroke-width=".061048px"/>
 <path d="m4.9309 3.401 2.3074 3.0928-1.3927-0.29497s-0.83404 1.2612-0.83404 1.2002c0-0.061032-0.14239-1.5358-0.14239-1.5358l-1.4545-0.44753 1.4545-0.56959z" fill="#7197bd" stroke-width=".23074"/>
 <g transform="translate(-309.57 342.86)">
  <g transform="matrix(1.0489 0 0 1.0489 -20.89 19.152)">
   <g transform="translate(67.065 93.797)">
    <circle cx="359.84" cy="-485.2" r="31.915" fill="#fff"/>
    <path d="m377.84-467.21-18.515-6.0766-11.408 15.798 0.0578-19.486-18.55-5.9681 18.551-5.9667-0.0562-19.486 11.407 15.799c2.3527 3.2081 4.6832 6.4323 7.0147 9.6557z" stroke-linecap="round" stroke-width="8.7041"/>
   </g>
   <path d="m444.76-373.73-6e-3 -40.749h-6.6454v35.891z" stroke="#000" stroke-width=".29354px"/>
   <path d="m420.2-398.59 11.094 14.871-6.6965-1.4182s-4.0102 6.0642-4.0102 5.7708-0.68466-7.3846-0.68466-7.3846l-6.9934-2.1518 6.9934-2.7387z" fill="#7197bd"/>
  </g>
  <circle cx="328.32" cy="-377.88" r="1.4056" fill="#fff" stroke="#fff" stroke-linecap="round" stroke-width="1.8"/>
 </g>
</svg>
